:SAMPLES-PER-SECOND 30
:FULLY-SPECIFIED
:DEGREES
166
root  -24.1346 41.3686 38.9472 2.02531 -2.62979 0.0310059
RightUpLeg  -1.56695 -6.03273 -3.22583
RightLeg  3.14283 2.23572 2.57841
RightFoot  -1.97032 0.193532 -2.52265
RightToes  1.16414e-010 0 -3.6325e-017
Spine  -1.78244 -0.719071 1.84059
Spine1  3.71976 -0.724988 -0.38663
HEad  -10.3419 7.62735 -0.223868
LeftShoulder1  0.536054 0.248467 -8.88946
LeftArm  -14.5874 11.757 -0.0279111
LeftForeArm  9.01446 -3.93711 -2.70073
LeftHand  -0.244104 0.0205437 5.32207
RightShoulder  0.115101 -2.52849 3.83098
RightArm  -18.8097 -2.00095 -1.01677
RightForeArm  -7.30603 1.3336 4.08035
RightHand  -0.926382 2.26644 -14.1906
LeftUpLeg  -1.58122 3.70883 1.66193
LeftLeg  -0.195682 7.16716 -3.78547
LeftFoot  -0.549916 -0.12436 1.26093
LeftToes  2.00086e-010 -2.05915e-011 4.26721e-011
167
root  -24.1055 41.3669 39.0287 2.0374 -2.64101 0.0305328
RightUpLeg  -1.45402 -6.07686 -3.29685
RightLeg  3.16023 2.30885 2.58953
RightFoot  -2.07108 0.187943 -2.48827
RightToes  1.16414e-010 0 -3.6325e-017
Spine  -1.88864 -0.684413 2.02991
Spine1  3.68199 -0.63654 -0.673128
HEad  -9.8897 7.23917 -0.17105
LeftShoulder1  0.506619 0.366555 -8.52198
LeftArm  -14.6531 12.3046 0.071932
LeftForeArm  9.61201 -5.02073 -2.72368
LeftHand  -0.244104 0.0205437 5.32207
RightShoulder  0.118769 -2.50617 3.92839
RightArm  -18.5122 -2.00523 -1.27545
RightForeArm  -7.55426 1.20932 4.16573
RightHand  -1.00165 2.69256 -14.5463
LeftUpLeg  -1.4685 3.64523 1.5885
LeftLeg  -0.199817 7.26579 -3.729
LeftFoot  -0.618887 -0.121942 1.22334
LeftToes  2.00086e-010 -2.05915e-011 4.26721e-011
168
root  -24.0843 41.3642 39.0971 1.95627 -2.5791 0.0293732
RightUpLeg  -1.25536 -6.13798 -3.36546
RightLeg  3.19101 2.33369 2.60918
RightFoot  -2.17295 0.186074 -2.49486
RightToes  1.16414e-010 0 -3.6325e-017
Spine  -1.73911 -0.543742 1.9327
Spine1  3.4554 -0.579836 -0.249199
HEad  -9.33354 6.49706 -0.554504
LeftShoulder1  0.600949 -0.0479407 -9.38397
LeftArm  -14.5545 12.3687 0.938234
LeftForeArm  9.58964 -5.26333 -2.7457
LeftHand  -0.244104 0.0205437 5.32207
RightShoulder  0.0717914 -2.85142 2.83846
RightArm  -18.5206 -2.27079 -0.45558
RightForeArm  -6.95315 1.32772 4.12256
RightHand  -1.03396 2.97976 -14.5085
LeftUpLeg  -1.31472 3.61504 1.54049
LeftLeg  -0.124221 7.26404 -3.6751
LeftFoot  -0.724948 -0.121327 1.21378
LeftToes  2.00086e-010 -2.05915e-011 4.26721e-011
169
root  -24.0687 41.3615 39.1559 1.89975 -2.51157 0.0188599
RightUpLeg  -1.08851 -6.16759 -3.39788
RightLeg  3.19532 2.3121 2.61039
RightFoot  -2.25314 0.185555 -2.51673
RightToes  1.16414e-010 0 -3.6325e-017
Spine  -1.66356 -0.391681 1.72554
Spine1  3.37943 -0.542782 0.335304
HEad  -8.95355 6.22245 -1.35584
LeftShoulder1  0.707551 -0.442254 -10.5464
LeftArm  -14.4483 11.8879 1.84162
LeftForeArm  9.35588 -4.75849 -2.75007
LeftHand  -0.244104 0.0205437 5.32207
RightShoulder  0.0288696 -3.21108 1.76475
RightArm  -18.7754 -2.49936 0.528894
RightForeArm  -6.21631 1.61503 4.0248
RightHand  -1.00722 2.89018 -14.2891
LeftUpLeg  -1.20817 3.65438 1.53701
LeftLeg  -0.0304853 7.16762 -3.68195
LeftFoot  -0.83047 -0.127762 1.31381
LeftToes  2.00086e-010 -2.05915e-011 4.26721e-011
170
root  -24.0512 41.3598 39.2046 1.95992 -2.54451 0.00567627
RightUpLeg  -1.07813 -6.16992 -3.41059
RightLeg  3.19047 2.34881 2.60757
RightFoot  -2.29484 0.185125 -2.53335
RightToes  1.16414e-010 0 -3.6325e-017
Spine  -1.87538 -0.328023 1.6396
Spine1  3.60264 -0.514584 0.497477
HEad  -8.94966 6.36408 -1.49993
LeftShoulder1  0.715948 -0.398187 -10.9928
LeftArm  -14.3619 11.3347 2.09373
LeftForeArm  9.18416 -4.2626 -2.79324
LeftHand  -0.244104 0.0205437 5.32207
RightShoulder  0.0371871 -3.13864 1.88376
RightArm  -18.7645 -2.32057 0.612895
RightForeArm  -5.95597 1.74369 4.04802
RightHand  -0.987983 2.77703 -14.2087
LeftUpLeg  -1.20811 3.70812 1.54079
LeftLeg  0.00341064 7.14179 -3.73333
LeftFoot  -0.88464 -0.136927 1.45629
LeftToes  2.00086e-010 -2.05915e-011 4.26721e-011
171
root  -24.0331 41.3597 39.2413 2.07893 -2.63535 0.00405884
RightUpLeg  -1.15601 -6.17727 -3.43636
RightLeg  3.17711 2.44463 2.61667
RightFoot  -2.30187 0.185304 -2.53614
RightToes  1.16414e-010 0 -3.6325e-017
Spine  -2.15979 -0.342641 1.63273
Spine1  3.85396 -0.507139 0.372214
HEad  -9.02254 6.65555 -1.24613
LeftShoulder1  0.66634 -0.146537 -10.8754
LeftArm  -14.2334 11.1546 1.90677
LeftForeArm  8.9973 -4.30979 -2.89533
LeftHand  -0.244104 0.0205437 5.32207
RightShoulder  0.0802141 -2.76098 2.69081
RightArm  -18.4392 -1.8774 0.139206
RightForeArm  -5.61047 1.67244 4.15595
RightHand  -1.00196 2.93162 -14.1495
LeftUpLeg  -1.25638 3.70909 1.51469
LeftLeg  -0.0304308 7.23365 -3.76391
LeftFoot  -0.897562 -0.140096 1.50556
LeftToes  2.00086e-010 -2.05915e-011 4.26721e-011
172
root  -24.0208 41.359 39.2673 2.16071 -2.6666 0.0174408
RightUpLeg  -1.19687 -6.20014 -3.475
RightLeg  3.15423 2.49689 2.62748
RightFoot  -2.30859 0.185333 -2.53659
RightToes  1.16414e-010 0 -3.6325e-017
Spine  -2.22193 -0.346063 1.53084
Spine1  3.83363 -0.512194 0.403105
HEad  -9.01261 6.64525 -0.863077
LeftShoulder1  0.66256 -0.131703 -10.8409
LeftArm  -14.1003 11.3201 1.78619
LeftForeArm  8.94259 -4.69482 -2.98468
LeftHand  -0.244104 0.0205437 5.32207
RightShoulder  0.112526 -2.48589 2.99631
RightArm  -18.2281 -1.66992 0.111303
RightForeArm  -4.54293 1.6782 4.17465
RightHand  -1.00911 3.16605 -13.8734
LeftUpLeg  -1.28456 3.66611 1.46727
LeftLeg  -0.070415 7.31757 -3.7536
LeftFoot  -0.915017 -0.137957 1.47231
LeftToes  2.00086e-010 -2.05915e-011 4.26721e-011
173
root  -24.0135 41.3583 39.2863 2.21689 -2.65283 0.0229187
RightUpLeg  -1.22015 -6.21216 -3.49041
RightLeg  3.14216 2.48961 2.62578
RightFoot  -2.33343 0.185367 -2.53712
RightToes  1.16414e-010 0 -3.6325e-017
Spine  -2.08182 -0.288505 1.35553
Spine1  3.56706 -0.487004 0.615313
HEad  -8.96256 6.50121 -0.945123
LeftShoulder1  0.714133 -0.396866 -10.9491
LeftArm  -14.0616 11.5333 1.74917
LeftForeArm  9.2325 -4.87338 -2.98358
LeftHand  -0.244104 0.0205437 5.32207
RightShoulder  0.125104 -2.34868 2.73364
RightArm  -18.203 -1.83536 0.530073
RightForeArm  -3.40361 1.85123 4.11584
RightHand  -0.992345 3.22462 -13.5602
LeftUpLeg  -1.32204 3.64444 1.44146
LeftLeg  -0.061759 7.32584 -3.74414
LeftFoot  -0.952253 -0.13831 1.4778
LeftToes  2.00086e-010 -2.05915e-011 4.26721e-011
174
root  -24.0041 41.3575 39.3001 2.29724 -2.69609 -0.00428772
RightUpLeg  -1.28778 -6.18707 -3.4617
RightLeg  3.13294 2.50133 2.61252
RightFoot  -2.349 0.184666 -2.52621
RightToes  1.16414e-010 0 -3.6325e-017
Spine  -1.95133 -0.206843 1.28855
Spine1  3.2963 -0.414349 0.696032
HEad  -9.01556 6.28094 -1.0347
LeftShoulder1  0.756837 -0.647292 -10.8791
LeftArm  -14.1187 11.6057 1.57341
LeftForeArm  9.62022 -4.61151 -2.9066
LeftHand  -0.244104 0.0205437 5.32207
RightShoulder  0.147512 -2.14209 2.72529
RightArm  -18.0185 -1.96165 0.596291
RightForeArm  -3.18995 1.9372 4.1517
RightHand  -0.983464 3.17101 -13.5226
LeftUpLeg  -1.40208 3.67805 1.46471
LeftLeg  -0.0166974 7.32561 -3.76807
LeftFoot  -0.996902 -0.142022 1.53551
LeftToes  2.00086e-010 -2.05915e-011 4.26721e-011
175
root  -23.9895 41.3569 39.3089 2.36128 -2.7944 -0.04776
RightUpLeg  -1.34013 -6.14441 -3.42512
RightLeg  3.09766 2.55658 2.59584
RightFoot  -2.3382 0.180715 -2.4647
RightToes  1.16414e-010 0 -3.6325e-017
Spine  -1.89015 -0.155898 1.40463
Spine1  3.17001 -0.321465 0.487222
HEad  -9.09283 6.31671 -1.12683
LeftShoulder1  0.758888 -0.719666 -10.5909
LeftArm  -14.1795 11.5184 1.31107
LeftForeArm  9.71849 -4.07953 -2.82885
LeftHand  -0.244104 0.0205437 5.32207
RightShoulder  0.176825 -1.93094 3.20263
RightArm  -17.6727 -1.72806 0.169077
RightForeArm  -3.59524 1.76402 4.28071
RightHand  -1.00008 3.22881 -13.6569
LeftUpLeg  -1.4528 3.72888 1.50734
LeftLeg  0.00589974 7.36812 -3.80504
LeftFoot  -1.03899 -0.142849 1.54835
LeftToes  2.00086e-010 -2.05915e-011 4.26721e-011
